<svg xmlns="http://www.w3.org/2000/svg" viewBox="0 0 500 500">
  <defs>
    <linearGradient id="bg" x1="0" y1="0" x2="1" y2="1">
      <stop offset="0%" stop-color="#ff9dd3"/>
      <stop offset="100%" stop-color="#ffd6a8"/>
    </linearGradient>
  </defs>
  <rect width="500" height="500" rx="60" fill="url(#bg)"/>
  <circle cx="250" cy="210" r="110" fill="#fff6f8"/>
  <circle cx="205" cy="190" r="18" fill="#6f2e6e"/>
  <circle cx="295" cy="190" r="18" fill="#6f2e6e"/>
  <path d="M200 250c20 30 60 30 80 0" stroke="#6f2e6e" stroke-width="14" fill="none" stroke-linecap="round"/>
  <path d="M150 320c20-26 60-40 100-40s80 14 100 40" fill="#ffebf1"/>
  <path d="M160 330c-12 20-18 40-18 62 0 35 28 64 64 64h148c35 0 64-29 64-64 0-22-6-42-18-62" fill="#fff2f5"/>
  <path d="M163 330c18-26 52-50 87-50s69 24 87 50" fill="#ffdee7"/>
  <text x="50%" y="470" text-anchor="middle" font-family="Segoe UI, sans-serif" font-size="36" fill="#7d2e6d" font-weight="700">Her Photo</text>
</svg>
